HIERARCHY
ROOT Hips
{
	OFFSET 0.000000 0.000000 0.000000
	CHANNELS 6 Xposition Yposition Zposition Xrotation Yrotation Zrotation
	JOINT Spine
	{
		OFFSET 0.000000 0.000000 0.102259
		CHANNELS 3 Xrotation Yrotation Zrotation
		JOINT Spine1
		{
			OFFSET 0.000000 -0.017757 0.100705
			CHANNELS 3 Xrotation Yrotation Zrotation
			JOINT Spine2
			{
				OFFSET 0.000000 -0.008912 0.101870
				CHANNELS 3 Xrotation Yrotation Zrotation
				JOINT Spine3
				{
					OFFSET 0.000000 0.000000 0.102259
					CHANNELS 3 Xrotation Yrotation Zrotation
					JOINT Neck
					{
						OFFSET 0.000000 0.013148 0.131476
						CHANNELS 3 Xrotation Yrotation Zrotation
						JOINT Neck1
						{
							OFFSET 0.000000 0.003817 0.043628
							CHANNELS 3 Xrotation Yrotation Zrotation
							JOINT Head
							{
								OFFSET 0.000000 0.007605 0.043130
								CHANNELS 3 Xrotation Yrotation Zrotation
								End Site
								{
									OFFSET 0.000000 0.000000 0.097916
								}
							}
						}
					}
					JOINT RightShoulder
					{
						OFFSET 0.000000 0.000000 0.092033
						CHANNELS 3 Xrotation Yrotation Zrotation
						JOINT RightArm
						{
							OFFSET 0.166682 0.000000 0.000000
							CHANNELS 3 Xrotation Yrotation Zrotation
							JOINT RightForeArm
							{
								OFFSET 0.339269 0.000000 0.000000
								CHANNELS 3 Xrotation Yrotation Zrotation
								JOINT RightHand
								{
									OFFSET 0.272813 0.000000 0.000000
									CHANNELS 3 Xrotation Yrotation Zrotation
									End Site
									{
										OFFSET 0.042337 0.031482 -0.014412
									}
									End Site
									{
										OFFSET 0.112899 -0.001086 0.000000
									}
								}
							}
						}
					}
					JOINT LeftShoulder
					{
						OFFSET 0.000000 0.000000 0.092033
						CHANNELS 3 Xrotation Yrotation Zrotation
						JOINT LeftArm
						{
							OFFSET -0.166682 0.000000 0.000000
							CHANNELS 3 Xrotation Yrotation Zrotation
							JOINT LeftForeArm
							{
								OFFSET -0.339269 0.000000 0.000000
								CHANNELS 3 Xrotation Yrotation Zrotation
								JOINT LeftHand
								{
									OFFSET -0.272813 0.000000 0.000000
									CHANNELS 3 Xrotation Yrotation Zrotation
									End Site
									{
										OFFSET -0.042337 0.031482 -0.014412
									}
									End Site
									{
										OFFSET -0.112899 -0.001086 0.000000
									}
								}
							}
						}
					}
				}
			}
		}
	}
	JOINT RightUpLeg
	{
		OFFSET 0.120852 0.000000 0.000000
		CHANNELS 3 Xrotation Yrotation Zrotation
		JOINT RightLeg
		{
			OFFSET 0.000000 0.000000 -0.533302
			CHANNELS 3 Xrotation Yrotation Zrotation
			JOINT RightFoot
			{
				OFFSET 0.000000 0.000000 -0.471812
				CHANNELS 3 Xrotation Yrotation Zrotation
				JOINT RightToeBase
				{
					OFFSET 0.000000 0.169608 -0.043308
					CHANNELS 3 Xrotation Yrotation Zrotation
					End Site
					{
						OFFSET 0.000000 0.063837 0.000000
					}
				}
			}
		}
	}
	JOINT LeftUpLeg
	{
		OFFSET -0.120852 0.000000 0.000000
		CHANNELS 3 Xrotation Yrotation Zrotation
		JOINT LeftLeg
		{
			OFFSET 0.000000 0.000000 -0.533302
			CHANNELS 3 Xrotation Yrotation Zrotation
			JOINT LeftFoot
			{
				OFFSET 0.000000 0.000000 -0.471812
				CHANNELS 3 Xrotation Yrotation Zrotation
				JOINT LeftToeBase
				{
					OFFSET 0.000000 0.169608 -0.043308
					CHANNELS 3 Xrotation Yrotation Zrotation
					End Site
					{
						OFFSET 0.000000 0.064424 0.000000
					}
				}
			}
		}
	}
}
MOTION
Frames: 14
Frame Time: 0.008333
1.648175 1.068057 -3.283618 -101.914450 6.245353 -12.725129 8.045500 -3.614983 3.138751 8.046432 -3.327800 3.441811 -10.532455 0.902323 3.592946 -10.532455 0.902323 3.592946 2.895172 9.769223 -10.940865 -9.235762 4.460457 -10.207947 -25.548266 0.024233 -9.911501 0.856211 9.636209 -5.101973 -0.144798 60.789603 21.886495 -1.167835 -2.139901 61.367888 -0.000036 16.766428 2.548925 -0.773912 -8.522516 -5.208255 -33.761301 -55.584326 -39.476449 -0.335447 0.225687 -33.932139 0.000017 -30.853087 -8.653938 23.008846 -18.128787 -1.043926 -13.926600 0.000000 0.000000 1.654632 23.427850 -13.467238 9.398700 0.000000 0.000000 14.093062 -10.769132 3.429572 -3.783500 0.000000 0.000000 7.704746 9.338605 11.371278 1.942600 0.000000 0.000000 
1.648170 1.068095 -3.283626 -101.871256 6.217222 -12.753320 7.999874 -3.603845 3.125787 8.000824 -3.317867 3.427853 -10.528221 0.897147 3.579639 -10.528221 0.897147 3.579639 2.871639 9.822434 -10.978994 -9.294710 4.500717 -10.242824 -25.653113 0.055849 -9.940005 0.866551 9.639334 -5.161370 -0.088926 60.858142 21.547938 -1.176419 -2.166429 61.487956 0.000020 16.773045 2.563324 -0.776585 -8.549572 -5.209417 -33.720816 -55.578888 -39.430358 -0.360309 0.242117 -33.899539 -0.000044 -30.852748 -8.666409 22.962531 -18.108615 -1.111353 -13.917200 0.000000 0.000000 1.572996 23.390105 -13.360671 9.412600 0.000000 0.000000 14.039276 -10.746400 3.399386 -3.773000 0.000000 0.000000 7.699513 9.335455 11.420249 1.935400 0.000000 0.000000 
1.648167 1.068121 -3.283585 -101.863792 6.210359 -12.793016 7.976898 -3.603375 3.117068 7.977932 -3.318096 3.419139 -10.526074 0.896855 3.571438 -10.526074 0.896855 3.571438 2.846919 9.871398 -11.020251 -9.357022 4.543670 -10.281361 -25.764224 0.100558 -9.969416 0.878828 9.652876 -5.227054 -0.037051 60.906064 21.196108 -1.180337 -2.186031 61.624180 0.000050 16.786668 2.592652 -0.778236 -8.568235 -5.209115 -33.708433 -55.568870 -39.407658 -0.379930 0.255053 -33.873654 0.000032 -30.834601 -8.675972 22.969227 -18.095403 -1.148196 -13.908500 0.000000 0.000000 1.525798 23.398338 -13.286878 9.384500 0.000000 0.000000 14.031932 -10.730315 3.400427 -3.764600 0.000000 0.000000 7.693585 9.330328 11.454351 1.938900 0.000000 0.000000 
1.648160 1.068133 -3.283499 -101.878170 6.220303 -12.838198 7.970675 -3.610392 3.109077 7.971762 -3.325808 3.411753 -10.527172 0.898559 3.564539 -10.527172 0.898559 3.564539 2.824765 9.924710 -11.069092 -9.428630 4.584552 -10.326200 -25.900296 0.136590 -10.007929 0.890794 9.664029 -5.291955 0.024993 60.961556 20.834288 -1.202616 -2.239010 61.749298 0.000019 16.802739 2.625571 -0.778345 -8.571535 -5.208475 -33.704620 -55.573666 -39.396315 -0.374415 0.251067 -33.843680 0.000058 -30.837210 -8.680065 23.005476 -18.089289 -1.167408 -13.895700 0.000000 0.000000 1.482907 23.391805 -13.215409 9.377400 0.000000 0.000000 14.052873 -10.724692 3.412577 -3.757500 0.000000 0.000000 7.685409 9.331045 11.480636 1.961700 0.000000 0.000000 
1.648160 1.068126 -3.283397 -101.887996 6.245784 -12.884125 7.958306 -3.632390 3.100234 7.959511 -3.348492 3.404920 -10.523704 0.903754 3.558743 -10.523704 0.903754 3.558743 2.802390 9.967059 -11.110166 -9.491161 4.631897 -10.365425 -26.015281 0.200191 -10.033262 0.906165 9.675145 -5.376241 0.122586 61.045793 20.445848 -1.202739 -2.249269 61.855888 -0.000019 16.791777 2.631164 -0.776619 -8.561963 -5.202687 -33.718053 -55.579502 -39.399035 -0.346909 0.232475 -33.826996 0.000018 -30.848380 -8.667764 23.034380 -18.098289 -1.199977 -13.860100 0.000000 0.000000 1.439902 23.342597 -13.134835 9.363000 0.000000 0.000000 14.074123 -10.734201 3.446783 -3.753100 0.000000 0.000000 7.678466 9.331779 11.494248 1.966400 0.000000 0.000000 
1.648150 1.068151 -3.283275 -101.909725 6.256760 -12.939506 7.950935 -3.637707 3.093038 7.952276 -3.354505 3.398229 -10.521303 0.903760 3.552342 -10.521303 0.903760 3.552342 2.772091 10.019557 -11.161466 -9.565910 4.678894 -10.413890 -26.147380 0.252351 -10.071199 0.921574 9.698618 -5.454334 0.247920 61.110149 20.028820 -1.216767 -2.285202 61.956831 0.000015 16.829982 2.659383 -0.778403 -8.556403 -5.217582 -33.713112 -55.594743 -39.373063 -0.351950 0.235730 -33.813076 0.000033 -30.843269 -8.681669 23.080698 -18.084966 -1.187893 -13.845100 0.000000 0.000000 1.387294 23.356237 -13.073529 9.382400 0.000000 0.000000 14.104957 -10.726510 3.483135 -3.745400 0.000000 0.000000 7.672862 9.343429 11.510050 1.950900 0.000000 0.000000 
1.648129 1.068161 -3.283136 -101.933019 6.270728 -12.996756 7.944663 -3.642829 3.084438 7.946044 -3.360323 3.390136 -10.521853 0.903369 3.544441 -10.521853 0.903369 3.544441 2.743297 10.063141 -11.211361 -9.637401 4.723325 -10.461727 -26.274385 0.310309 -10.107250 0.937001 9.727305 -5.529028 0.397436 61.161376 19.585726 -1.219154 -2.299336 62.056633 0.000004 16.873256 2.689254 -0.779179 -8.548290 -5.228090 -33.716421 -55.604903 -39.363007 -0.341143 0.228325 -33.793720 -0.000014 -30.860705 -8.695996 23.127713 -18.073305 -1.181818 -13.824100 0.000000 0.000000 1.317073 23.340768 -12.990061 9.440600 0.000000 0.000000 14.135405 -10.721963 3.514839 -3.731800 0.000000 0.000000 7.666102 9.342634 11.537401 1.946200 0.000000 0.000000 
1.648076 1.068161 -3.282991 -101.952706 6.292046 -13.060236 7.934243 -3.647553 3.075436 7.935759 -3.365743 3.381540 -10.521054 0.900682 3.536037 -10.521054 0.900682 3.536037 2.710735 10.090754 -11.256747 -9.709064 4.766499 -10.507048 -26.397257 0.386177 -10.136633 0.955440 9.758717 -5.619100 0.515955 61.199717 19.181728 -1.201300 -2.274044 62.144356 -0.000003 16.888997 2.700244 -0.780357 -8.540219 -5.240159 -33.723740 -55.611453 -39.353540 -0.351992 0.235488 -33.782777 -0.000037 -30.872885 -8.705641 23.176739 -18.067880 -1.152749 -13.797200 0.000000 0.000000 1.278969 23.338025 -12.940684 9.431700 0.000000 0.000000 14.162281 -10.725271 3.548975 -3.710000 0.000000 0.000000 7.651469 9.351075 11.570134 1.952900 0.000000 0.000000 
1.647982 1.068167 -3.282854 -101.972365 6.316620 -13.135477 7.923001 -3.647582 3.066919 7.924506 -3.366571 3.373028 -10.521653 0.893205 3.527129 -10.521653 0.893205 3.527129 2.669450 10.119810 -11.296910 -9.781403 4.807863 -10.547636 -26.509934 0.454456 -10.163023 0.973669 9.788700 -5.708734 0.663104 61.245614 18.757899 -1.189078 -2.258101 62.219965 0.000028 16.910237 2.703371 -0.781446 -8.536491 -5.249772 -33.741375 -55.604127 -39.351176 -0.357921 0.239394 -33.775952 -0.000016 -30.869930 -8.715537 23.235813 -18.060141 -1.090430 -13.776800 0.000000 0.000000 1.240834 23.333082 -12.909246 9.435300 0.000000 0.000000 14.167837 -10.734939 3.479262 -3.637900 0.000000 0.000000 7.590133 9.372760 11.714970 1.962500 0.000000 0.000000 
1.647926 1.068151 -3.282673 -101.994670 6.343403 -13.209570 7.906628 -3.655914 3.054121 7.908152 -3.375997 3.361039 -10.516761 0.893017 3.515628 -10.516761 0.893017 3.515628 2.631071 10.150366 -11.333072 -9.847793 4.845351 -10.583757 -26.612541 0.510621 -10.187509 0.990239 9.804225 -5.795855 0.829028 61.310128 18.318893 -1.209022 -2.301741 62.278811 0.000018 16.922437 2.732711 -0.779335 -8.532230 -5.238498 -33.779175 -55.586776 -39.375912 -0.341835 0.228549 -33.766118 -0.000005 -30.881879 -8.718269 23.302624 -18.050049 -0.996128 -13.761200 0.000000 0.000000 1.248295 23.363400 -12.929856 9.400500 0.000000 0.000000 14.194243 -10.739121 3.489184 -3.602300 0.000000 0.000000 7.562676 9.368163 11.779208 1.959200 0.000000 0.000000 
1.647883 1.068159 -3.282595 -101.997828 6.329697 -13.219865 7.879684 -3.646335 3.022224 7.881333 -3.369220 3.328460 -10.521319 0.895542 3.483926 -10.521319 0.895542 3.483926 2.592548 10.191310 -11.375008 -9.916720 4.880403 -10.624063 -26.720658 0.548752 -10.220974 1.007852 9.831518 -5.882170 0.994963 61.342967 17.885161 -1.201455 -2.293061 62.337854 0.000044 16.903235 2.719158 -0.781055 -8.539884 -5.245559 -33.797479 -55.574571 -39.373045 -0.333694 0.223093 -33.764550 -0.000025 -30.879199 -8.727023 23.283933 -18.033946 -1.016334 -13.709600 0.000000 0.000000 1.218816 23.354099 -12.907060 9.414500 0.000000 0.000000 14.203323 -10.720092 3.521433 -3.611900 0.000000 0.000000 7.574972 9.356017 11.746746 1.959700 0.000000 0.000000 
1.647827 1.068151 -3.282402 -102.014197 6.349574 -13.283044 7.854102 -3.654398 3.000206 7.855958 -3.379176 3.307257 -10.514959 0.901350 3.464029 -10.514959 0.901350 3.464029 2.556948 10.236801 -11.418347 -9.980092 4.913075 -10.664942 -26.819017 0.575159 -10.257622 1.021841 9.853744 -5.950184 1.199388 61.382929 17.417758 -1.159927 -2.218615 62.389639 0.000015 16.876092 2.670901 -0.780145 -8.535917 -5.241669 -33.817674 -55.580450 -39.376240 -0.352086 0.235347 -33.759777 -0.000043 -30.873483 -8.749756 23.338477 -18.022783 -0.949913 -13.696600 0.000000 0.000000 1.200918 23.353421 -12.888071 9.437100 0.000000 0.000000 14.233148 -10.719692 3.591862 -3.600100 0.000000 0.000000 7.571237 9.350250 11.743303 1.956600 0.000000 0.000000 
1.647776 1.068139 -3.282170 -102.031371 6.383490 -13.371219 7.826956 -3.671534 2.982427 7.828965 -3.397800 3.290992 -10.505695 0.913941 3.449939 -10.505695 0.913941 3.449939 2.512106 10.278573 -11.455366 -10.041825 4.941198 -10.700734 -26.901441 0.595170 -10.290661 1.035357 9.859152 -6.025130 1.428170 61.441147 16.929125 -1.162990 -2.229314 62.440671 -0.000010 16.895236 2.673890 -0.779831 -8.530832 -5.242454 -33.836362 -55.590512 -39.376755 -0.371783 0.248527 -33.761194 -0.000074 -30.874475 -8.767378 23.417583 -18.011873 -0.843753 -13.695300 0.000000 0.000000 1.192602 23.336847 -12.875827 9.434800 0.000000 0.000000 14.265547 -10.726634 3.613116 -3.575100 0.000000 0.000000 7.546586 9.371384 11.808829 1.953100 0.000000 0.000000 
1.647690 1.068123 -3.281906 -102.045162 6.418512 -13.463912 7.796252 -3.684572 2.965636 7.798369 -3.412230 3.275513 -10.496232 0.924834 3.436348 -10.496232 0.924834 3.436348 2.454157 10.313031 -11.493453 -10.101976 4.964552 -10.739265 -26.962380 0.614778 -10.326901 1.055352 9.862354 -6.138767 1.596765 61.487327 16.514924 -1.194682 -2.293776 62.478182 0.000041 16.903465 2.671080 -0.782018 -8.526801 -5.259828 -33.849723 -55.601829 -39.374287 -0.367037 0.245372 -33.763114 0.000025 -30.891602 -8.753878 23.499072 -18.002779 -0.744239 -13.696100 0.000000 0.000000 1.176834 23.313399 -12.851649 9.459700 0.000000 0.000000 14.295627 -10.734590 3.667057 -3.546800 0.000000 0.000000 7.523618 9.383487 11.848089 1.962700 0.000000 0.000000 
